<svg version="1" xmlns="http://www.w3.org/2000/svg" width="933.333" height="933.333" viewBox="0 0 700.000000 700.000000"><path d="M49.5 151.1c-8.1 1.2-10.4 1.9-16.8 4.4-13.2 5.4-23.3 14.6-28.9 26.4C.9 188 .6 189.3.6 198.5c.1 11.4 2 17.7 7.9 26l3.4 4.9-2 3.1c-13.1 19.7-10.1 43.3 7.3 57.6 2.9 2.4 5.5 4.4 5.7 4.6.3.2-.4 2-1.3 4.1-3.2 6.6-4.4 16.7-3 24.5 1.8 9.5 4.9 15.2 12 22.3 10.5 10.5 22.7 15 42.2 15.9 14.1.5 18.6 2.4 29.1 11.9 4.1 3.7 10 8.3 13.2 10.2 5.3 3.3 5.7 3.9 6.4 8.2 1.2 8.3 1.5 9.5 4.6 19.6 4.8 15.5 11.7 29.9 21 43.8 6.4 9.4 6.9 10.2 13.4 17.6 27.2 31.4 68.8 55.9 115 67.7 1.7.5 3.5.9 4 1.1 2.6.8 12.8 2.6 14 2.5.2 0 1.9.5 3.7 1 1.8.5 5.6 1.2 8.3 1.5 2.8.3 6.4.7 8 .9 11.6 1.5 19.5 1.8 37.5 1.8 11.3 0 22.9-.3 25.8-.7 2.8-.3 7.6-.9 10.5-1.2 33-3.5 75.2-17.1 100.2-32.4 3.6-2.2 6.8-4 7-4 .8 0 18.3-12.7 24-17.4 6.6-5.5 18.5-17.6 25-25.6 16.6-20.4 27.8-43.7 34-70.3 2.2-9.8 3.1-12 4.9-12.7 3.2-1.2 10.6-6.8 17.2-12.9 8.6-8 13.8-10 27-10.6 18.1-.8 30.2-4.9 41-13.9 13.7-11.5 18.3-31.1 11.2-47.9-1.2-2.6-1.9-4.9-1.7-5 22.2-14.6 27.5-40.4 13-62.2l-2-3.1 3.4-4.9c5.1-7.1 7.7-14.7 8.1-23.7.5-12.6-3.1-21.9-12.1-31.7-8.5-9.1-22.2-16-35.5-17.9-10.8-1.5-32.7-.4-44.6 2.3-1.2.3-3.8.7-5.9 1.1-7 1.1-28.9 7.4-40 11.5-15.7 5.8-39.2 17.6-51.6 25.9l-10.7 7-9.6-6.4c-9-6.1-24.9-15.3-32.6-18.8-18.6-8.6-45-17.1-60.4-19.3-2.1-.3-4.8-.8-6-1.1-10.3-2.5-44.3-3.7-63.1-2.1-42.3 3.5-80.8 17-116.4 40.8l-10.4 7-8.1-5.5c-22-14.9-49.7-27.4-78.1-35.1-7.1-2-14.1-3.7-15.5-4-1.4-.2-5.4-.9-9-1.4-3.6-.6-8.2-1.3-10.2-1.6-6-1-24.9-1.2-30.3-.4z"/></svg>